<?xml version="1.0" encoding="UTF-8" standalone="no"?>
<!DOCTYPE svg PUBLIC "-//W3C//DTD SVG 1.1//EN" "http://www.w3.org/Graphics/SVG/1.1/DTD/svg11.dtd">
<svg version="1.1" xmlns="http://www.w3.org/2000/svg" xmlns:xlink="http://www.w3.org/1999/xlink" preserveAspectRatio="xMidYMid meet" viewBox="0 0 640 640" width="640" height="640"><defs><path d="M383.79 16.18C465.2 16.18 531.22 68 531.22 131.93C531.22 134.33 531.13 136.74 530.93 139.1C589.74 148.83 632.98 181.38 632.98 220.05C632.98 220.05 632.98 220.05 632.98 220.05C632.98 266.4 570.89 303.97 494.3 303.97C459.52 303.97 181.24 303.97 146.46 303.97C69.88 303.97 7.79 266.4 7.79 220.05C7.79 220.05 7.79 220.05 7.79 220.05C7.79 179.65 54.98 145.92 117.81 137.95C123.44 94.14 170.55 59.95 227.83 59.95C240.42 59.95 252.49 61.6 263.77 64.63C290.54 35.3 334.31 16.18 383.79 16.18Z" id="eAfi6BHia"></path><path d="M574.8 413.13C579.1 413.13 582.6 416.62 582.6 420.93C582.6 426.39 582.6 434.98 582.6 440.45C582.6 444.75 579.1 448.24 574.8 448.24C545.37 448.24 464.86 448.24 435.43 448.24C431.12 448.24 427.63 444.75 427.63 440.45C427.63 434.98 427.63 426.39 427.63 420.93C427.63 416.62 431.12 413.13 435.43 413.13C464.86 413.13 545.37 413.13 574.8 413.13Z" id="c1TK32neIJ"></path><path d="M567.54 430.69C567.54 437.13 562.31 442.35 555.87 442.35C549.43 442.35 544.2 437.13 544.2 430.69C544.2 424.25 549.43 419.02 555.87 419.02C562.31 419.02 567.54 424.25 567.54 430.69Z" id="b16MHaJRQ1"></path><path d="M535.51 430.69C535.51 435.93 531.42 440.18 526.38 440.18C521.34 440.18 517.25 435.93 517.25 430.69C517.25 425.45 521.34 421.19 526.38 421.19C531.42 421.19 535.51 425.45 535.51 430.69Z" id="aS5ycZBb6"></path><path d="M506.56 430.69C506.56 434.51 503.45 437.61 499.61 437.61C495.77 437.61 492.65 434.51 492.65 430.69C492.65 426.87 495.77 423.77 499.61 423.77C503.45 423.77 506.56 426.87 506.56 430.69Z" id="a7KpsuH7G"></path><path d="M574.8 458.64C579.1 458.64 582.6 462.13 582.6 466.43C582.6 471.9 582.6 480.49 582.6 485.95C582.6 490.26 579.1 493.75 574.8 493.75C545.37 493.75 464.86 493.75 435.43 493.75C431.12 493.75 427.63 490.26 427.63 485.95C427.63 480.49 427.63 471.9 427.63 466.43C427.63 462.13 431.12 458.64 435.43 458.64C464.86 458.64 545.37 458.64 574.8 458.64Z" id="a9tU84Y05"></path><path d="M567.54 476.19C567.54 482.63 562.31 487.86 555.87 487.86C549.43 487.86 544.2 482.63 544.2 476.19C544.2 469.76 549.43 464.53 555.87 464.53C562.31 464.53 567.54 469.76 567.54 476.19Z" id="m1Kl6HTrXb"></path><path d="M535.51 476.19C535.51 481.43 531.42 485.69 526.38 485.69C521.34 485.69 517.25 481.43 517.25 476.19C517.25 470.96 521.34 466.7 526.38 466.7C531.42 466.7 535.51 470.96 535.51 476.19Z" id="f1wSq9KhH"></path><path d="M506.56 476.19C506.56 480.01 503.45 483.11 499.61 483.11C495.77 483.11 492.65 480.01 492.65 476.19C492.65 472.37 495.77 469.27 499.61 469.27C503.45 469.27 506.56 472.37 506.56 476.19Z" id="c1B9k4Y72D"></path><path d="M576.25 504.87C580.55 504.87 584.04 508.36 584.04 512.67C584.04 518.13 584.04 526.72 584.04 532.19C584.04 536.49 580.55 539.98 576.25 539.98C546.82 539.98 466.31 539.98 436.88 539.98C432.57 539.98 429.08 536.49 429.08 532.19C429.08 526.72 429.08 518.13 429.08 512.67C429.08 508.36 432.57 504.87 436.88 504.87C466.31 504.87 546.82 504.87 576.25 504.87Z" id="cgjoOMtrB"></path><path d="M568.99 522.43C568.99 528.87 563.76 534.09 557.32 534.09C550.88 534.09 545.65 528.87 545.65 522.43C545.65 515.99 550.88 510.76 557.32 510.76C563.76 510.76 568.99 515.99 568.99 522.43Z" id="a4Gqc8Oe5"></path><path d="M536.96 522.43C536.96 527.67 532.87 531.92 527.83 531.92C522.79 531.92 518.7 527.67 518.7 522.43C518.7 517.19 522.79 512.93 527.83 512.93C532.87 512.93 536.96 517.19 536.96 522.43Z" id="jOrHTEQkp"></path><path d="M508.01 522.43C508.01 526.25 504.9 529.35 501.06 529.35C497.22 529.35 494.1 526.25 494.1 522.43C494.1 518.61 497.22 515.51 501.06 515.51C504.9 515.51 508.01 518.61 508.01 522.43Z" id="e4pWGP6ZWh"></path><path d="M529.28 566.74C532.34 566.74 534.82 569.22 534.82 572.28C534.82 573.94 534.82 573.38 534.82 575.04C534.82 578.1 532.34 580.58 529.28 580.58C519.09 580.58 494.04 580.58 483.84 580.58C480.78 580.58 478.3 578.1 478.3 575.04C478.3 573.38 478.3 573.94 478.3 572.28C478.3 569.22 480.78 566.74 483.84 566.74C494.04 566.74 519.09 566.74 529.28 566.74Z" id="g4gZDAE0wY"></path><path d="M499.93 537.93C499.94 535.79 501.69 534.07 503.83 534.08C505.82 534.1 507.92 534.11 509.92 534.12C512.06 534.14 513.78 535.89 513.77 538.03C513.72 545.16 513.6 562.69 513.55 569.83C513.54 571.97 511.79 573.69 509.65 573.68C507.65 573.67 505.56 573.65 503.56 573.64C501.42 573.62 499.7 571.88 499.71 569.73C499.76 562.6 499.88 545.07 499.93 537.93Z" id="g10qUFDrKM"></path><path d="M389.34 413.13C393.65 413.13 397.14 416.62 397.14 420.93C397.14 426.39 397.14 434.98 397.14 440.45C397.14 444.75 393.65 448.24 389.34 448.24C359.91 448.24 279.41 448.24 249.97 448.24C245.67 448.24 242.18 444.75 242.18 440.45C242.18 434.98 242.18 426.39 242.18 420.93C242.18 416.62 245.67 413.13 249.97 413.13C279.41 413.13 359.91 413.13 389.34 413.13Z" id="c7BsP7VMg"></path><path d="M382.08 430.69C382.08 437.13 376.85 442.35 370.41 442.35C363.97 442.35 358.75 437.13 358.75 430.69C358.75 424.25 363.97 419.02 370.41 419.02C376.85 419.02 382.08 424.25 382.08 430.69Z" id="d8mcrIms9X"></path><path d="M350.05 430.69C350.05 435.93 345.96 440.18 340.92 440.18C335.88 440.18 331.79 435.93 331.79 430.69C331.79 425.45 335.88 421.19 340.92 421.19C345.96 421.19 350.05 425.45 350.05 430.69Z" id="b403kIRZQA"></path><path d="M321.11 430.69C321.11 434.51 317.99 437.61 314.15 437.61C310.31 437.61 307.19 434.51 307.19 430.69C307.19 426.87 310.31 423.77 314.15 423.77C317.99 423.77 321.11 426.87 321.11 430.69Z" id="a11Jl6aZdF"></path><path d="M389.34 458.64C393.65 458.64 397.14 462.13 397.14 466.43C397.14 471.9 397.14 480.49 397.14 485.95C397.14 490.26 393.65 493.75 389.34 493.75C359.91 493.75 279.41 493.75 249.97 493.75C245.67 493.75 242.18 490.26 242.18 485.95C242.18 480.49 242.18 471.9 242.18 466.43C242.18 462.13 245.67 458.64 249.97 458.64C279.41 458.64 359.91 458.64 389.34 458.64Z" id="cDSa1PoFv"></path><path d="M382.08 476.19C382.08 482.63 376.85 487.86 370.41 487.86C363.97 487.86 358.75 482.63 358.75 476.19C358.75 469.76 363.97 464.53 370.41 464.53C376.85 464.53 382.08 469.76 382.08 476.19Z" id="awBla4fZS"></path><path d="M350.05 476.19C350.05 481.43 345.96 485.69 340.92 485.69C335.88 485.69 331.79 481.43 331.79 476.19C331.79 470.96 335.88 466.7 340.92 466.7C345.96 466.7 350.05 470.96 350.05 476.19Z" id="leAe3pKTC"></path><path d="M321.11 476.19C321.11 480.01 317.99 483.11 314.15 483.11C310.31 483.11 307.19 480.01 307.19 476.19C307.19 472.37 310.31 469.27 314.15 469.27C317.99 469.27 321.11 472.37 321.11 476.19Z" id="b1p0QkVQBn"></path><path d="M390.79 504.87C395.1 504.87 398.59 508.36 398.59 512.67C398.59 518.13 398.59 526.72 398.59 532.19C398.59 536.49 395.1 539.98 390.79 539.98C361.36 539.98 280.86 539.98 251.42 539.98C247.12 539.98 243.63 536.49 243.63 532.19C243.63 526.72 243.63 518.13 243.63 512.67C243.63 508.36 247.12 504.87 251.42 504.87C280.86 504.87 361.36 504.87 390.79 504.87Z" id="al3JJ7Af7"></path><path d="M383.53 522.43C383.53 528.87 378.3 534.09 371.86 534.09C365.42 534.09 360.19 528.87 360.19 522.43C360.19 515.99 365.42 510.76 371.86 510.76C378.3 510.76 383.53 515.99 383.53 522.43Z" id="b2YbDHwTo0"></path><path d="M351.5 522.43C351.5 527.67 347.41 531.92 342.37 531.92C337.33 531.92 333.24 527.67 333.24 522.43C333.24 517.19 337.33 512.93 342.37 512.93C347.41 512.93 351.5 517.19 351.5 522.43Z" id="a1K6IdO4W"></path><path d="M322.56 522.43C322.56 526.25 319.44 529.35 315.6 529.35C311.76 529.35 308.64 526.25 308.64 522.43C308.64 518.61 311.76 515.51 315.6 515.51C319.44 515.51 322.56 518.61 322.56 522.43Z" id="f2h6QuZuFe"></path><path d="M343.83 566.74C346.89 566.74 349.37 569.22 349.37 572.28C349.37 573.94 349.37 573.38 349.37 575.04C349.37 578.1 346.89 580.58 343.83 580.58C333.63 580.58 308.58 580.58 298.39 580.58C295.33 580.58 292.85 578.1 292.85 575.04C292.85 573.38 292.85 573.94 292.85 572.28C292.85 569.22 295.33 566.74 298.39 566.74C308.58 566.74 333.63 566.74 343.83 566.74Z" id="k5WoXQSqTD"></path><path d="M314.47 537.93C314.48 535.79 316.23 534.07 318.37 534.08C320.37 534.1 322.47 534.11 324.46 534.12C326.6 534.14 328.32 535.89 328.31 538.03C328.26 545.16 328.14 562.69 328.09 569.83C328.08 571.97 326.33 573.69 324.19 573.68C322.2 573.67 320.1 573.65 318.11 573.64C315.96 573.62 314.24 571.88 314.25 569.73C314.3 562.6 314.42 545.07 314.47 537.93Z" id="a6dp27U4I"></path><path d="M206.02 413.13C210.33 413.13 213.82 416.62 213.82 420.93C213.82 426.39 213.82 434.98 213.82 440.45C213.82 444.75 210.33 448.24 206.02 448.24C176.59 448.24 96.09 448.24 66.65 448.24C62.35 448.24 58.86 444.75 58.86 440.45C58.86 434.98 58.86 426.39 58.86 420.93C58.86 416.62 62.35 413.13 66.65 413.13C96.09 413.13 176.59 413.13 206.02 413.13Z" id="b3DGGLXxf1"></path><path d="M198.76 430.69C198.76 437.13 193.53 442.35 187.09 442.35C180.65 442.35 175.43 437.13 175.43 430.69C175.43 424.25 180.65 419.02 187.09 419.02C193.53 419.02 198.76 424.25 198.76 430.69Z" id="j4wxOszMYd"></path><path d="M166.73 430.69C166.73 435.93 162.64 440.18 157.6 440.18C152.56 440.18 148.47 435.93 148.47 430.69C148.47 425.45 152.56 421.19 157.6 421.19C162.64 421.19 166.73 425.45 166.73 430.69Z" id="g1utAQ387Z"></path><path d="M137.79 430.69C137.79 434.51 134.67 437.61 130.83 437.61C126.99 437.61 123.87 434.51 123.87 430.69C123.87 426.87 126.99 423.77 130.83 423.77C134.67 423.77 137.79 426.87 137.79 430.69Z" id="bqa293MC"></path><path d="M206.02 458.64C210.33 458.64 213.82 462.13 213.82 466.43C213.82 471.9 213.82 480.49 213.82 485.95C213.82 490.26 210.33 493.75 206.02 493.75C176.59 493.75 96.09 493.75 66.65 493.75C62.35 493.75 58.86 490.26 58.86 485.95C58.86 480.49 58.86 471.9 58.86 466.43C58.86 462.13 62.35 458.64 66.65 458.64C96.09 458.64 176.59 458.64 206.02 458.64Z" id="gpRLS64Hc"></path><path d="M198.76 476.19C198.76 482.63 193.53 487.86 187.09 487.86C180.65 487.86 175.43 482.63 175.43 476.19C175.43 469.76 180.65 464.53 187.09 464.53C193.53 464.53 198.76 469.76 198.76 476.19Z" id="d1oIvGCXMK"></path><path d="M166.73 476.19C166.73 481.43 162.64 485.69 157.6 485.69C152.56 485.69 148.47 481.43 148.47 476.19C148.47 470.96 152.56 466.7 157.6 466.7C162.64 466.7 166.73 470.96 166.73 476.19Z" id="a2FnutRAWA"></path><path d="M137.79 476.19C137.79 480.01 134.67 483.11 130.83 483.11C126.99 483.11 123.87 480.01 123.87 476.19C123.87 472.37 126.99 469.27 130.83 469.27C134.67 469.27 137.79 472.37 137.79 476.19Z" id="c1NSEL7MbF"></path><path d="M207.47 504.87C211.78 504.87 215.27 508.36 215.27 512.67C215.27 518.13 215.27 526.72 215.27 532.19C215.27 536.49 211.78 539.98 207.47 539.98C178.04 539.98 97.53 539.98 68.1 539.98C63.8 539.98 60.3 536.49 60.3 532.19C60.3 526.72 60.3 518.13 60.3 512.67C60.3 508.36 63.8 504.87 68.1 504.87C97.53 504.87 178.04 504.87 207.47 504.87Z" id="b1dFX5Zjip"></path><path d="M200.21 522.43C200.21 528.87 194.98 534.09 188.54 534.09C182.1 534.09 176.87 528.87 176.87 522.43C176.87 515.99 182.1 510.76 188.54 510.76C194.98 510.76 200.21 515.99 200.21 522.43Z" id="cJwLFt1r"></path><path d="M168.18 522.43C168.18 527.67 164.09 531.92 159.05 531.92C154.01 531.92 149.92 527.67 149.92 522.43C149.92 517.19 154.01 512.93 159.05 512.93C164.09 512.93 168.18 517.19 168.18 522.43Z" id="e2Rt5xl60u"></path><path d="M139.24 522.43C139.24 526.25 136.12 529.35 132.28 529.35C128.44 529.35 125.32 526.25 125.32 522.43C125.32 518.61 128.44 515.51 132.28 515.51C136.12 515.51 139.24 518.61 139.24 522.43Z" id="b18rrcgFy5"></path><path d="M160.51 566.74C163.57 566.74 166.05 569.22 166.05 572.28C166.05 573.94 166.05 573.38 166.05 575.04C166.05 578.1 163.57 580.58 160.51 580.58C150.31 580.58 125.26 580.58 115.07 580.58C112.01 580.58 109.53 578.1 109.53 575.04C109.53 573.38 109.53 573.94 109.53 572.28C109.53 569.22 112.01 566.74 115.07 566.74C125.26 566.74 150.31 566.74 160.51 566.74Z" id="bfiCLchsS"></path><path d="M131.15 537.93C131.16 535.79 132.91 534.07 135.05 534.08C137.05 534.1 139.15 534.11 141.14 534.12C143.28 534.14 145 535.89 144.99 538.03C144.94 545.16 144.82 562.69 144.77 569.83C144.76 571.97 143.01 573.69 140.87 573.68C138.88 573.67 136.78 573.65 134.79 573.64C132.64 573.62 130.92 571.88 130.93 569.73C130.98 562.6 131.1 545.07 131.15 537.93Z" id="cKIFun67"></path><path d="M322.56 415.75L322.56 306.63" id="b1xkNNTgGO"></path><path d="M141.06 415.75L141.06 306.63" id="a1Ece1u57o"></path><path d="M506.56 415.75L506.56 306.63" id="cIJfOHY0U"></path></defs><g><g><g><g><use xlink:href="#eAfi6BHia" opacity="1" fill-opacity="0" stroke="#2196f3" stroke-width="10" stroke-opacity="1"></use></g></g><g><use xlink:href="#c1TK32neIJ" opacity="1" fill="#2196f3" fill-opacity="1"></use></g><g><use xlink:href="#b16MHaJRQ1" opacity="1" fill="#fafafa" fill-opacity="1"></use></g><g><use xlink:href="#aS5ycZBb6" opacity="1" fill="#fafafa" fill-opacity="1"></use></g><g><use xlink:href="#a7KpsuH7G" opacity="1" fill="#fafafa" fill-opacity="1"></use></g><g><use xlink:href="#a9tU84Y05" opacity="1" fill="#2196f3" fill-opacity="1"></use></g><g><use xlink:href="#m1Kl6HTrXb" opacity="1" fill="#fafafa" fill-opacity="1"></use></g><g><use xlink:href="#f1wSq9KhH" opacity="1" fill="#fafafa" fill-opacity="1"></use></g><g><use xlink:href="#c1B9k4Y72D" opacity="1" fill="#fafafa" fill-opacity="1"></use></g><g><use xlink:href="#cgjoOMtrB" opacity="1" fill="#2196f3" fill-opacity="1"></use></g><g><use xlink:href="#a4Gqc8Oe5" opacity="1" fill="#fafafa" fill-opacity="1"></use></g><g><use xlink:href="#jOrHTEQkp" opacity="1" fill="#fafafa" fill-opacity="1"></use></g><g><use xlink:href="#e4pWGP6ZWh" opacity="1" fill="#fafafa" fill-opacity="1"></use></g><g><use xlink:href="#g4gZDAE0wY" opacity="1" fill="#2196f3" fill-opacity="1"></use></g><g><use xlink:href="#g10qUFDrKM" opacity="1" fill="#2196f3" fill-opacity="1"></use></g><g><use xlink:href="#c7BsP7VMg" opacity="1" fill="#2196f3" fill-opacity="1"></use></g><g><use xlink:href="#d8mcrIms9X" opacity="1" fill="#fafafa" fill-opacity="1"></use></g><g><use xlink:href="#b403kIRZQA" opacity="1" fill="#fafafa" fill-opacity="1"></use></g><g><use xlink:href="#a11Jl6aZdF" opacity="1" fill="#fafafa" fill-opacity="1"></use></g><g><use xlink:href="#cDSa1PoFv" opacity="1" fill="#2196f3" fill-opacity="1"></use></g><g><use xlink:href="#awBla4fZS" opacity="1" fill="#fafafa" fill-opacity="1"></use></g><g><use xlink:href="#leAe3pKTC" opacity="1" fill="#fafafa" fill-opacity="1"></use></g><g><use xlink:href="#b1p0QkVQBn" opacity="1" fill="#fafafa" fill-opacity="1"></use></g><g><use xlink:href="#al3JJ7Af7" opacity="1" fill="#2196f3" fill-opacity="1"></use></g><g><use xlink:href="#b2YbDHwTo0" opacity="1" fill="#fafafa" fill-opacity="1"></use></g><g><use xlink:href="#a1K6IdO4W" opacity="1" fill="#fafafa" fill-opacity="1"></use></g><g><use xlink:href="#f2h6QuZuFe" opacity="1" fill="#fafafa" fill-opacity="1"></use></g><g><use xlink:href="#k5WoXQSqTD" opacity="1" fill="#2196f3" fill-opacity="1"></use></g><g><use xlink:href="#a6dp27U4I" opacity="1" fill="#2196f3" fill-opacity="1"></use></g><g><use xlink:href="#b3DGGLXxf1" opacity="1" fill="#2196f3" fill-opacity="1"></use></g><g><use xlink:href="#j4wxOszMYd" opacity="1" fill="#fafafa" fill-opacity="1"></use></g><g><use xlink:href="#g1utAQ387Z" opacity="1" fill="#fafafa" fill-opacity="1"></use></g><g><use xlink:href="#bqa293MC" opacity="1" fill="#fafafa" fill-opacity="1"></use></g><g><use xlink:href="#gpRLS64Hc" opacity="1" fill="#2196f3" fill-opacity="1"></use></g><g><use xlink:href="#d1oIvGCXMK" opacity="1" fill="#fafafa" fill-opacity="1"></use></g><g><use xlink:href="#a2FnutRAWA" opacity="1" fill="#fafafa" fill-opacity="1"></use></g><g><use xlink:href="#c1NSEL7MbF" opacity="1" fill="#fafafa" fill-opacity="1"></use></g><g><use xlink:href="#b1dFX5Zjip" opacity="1" fill="#2196f3" fill-opacity="1"></use></g><g><use xlink:href="#cJwLFt1r" opacity="1" fill="#fafafa" fill-opacity="1"></use></g><g><use xlink:href="#e2Rt5xl60u" opacity="1" fill="#fafafa" fill-opacity="1"></use></g><g><use xlink:href="#b18rrcgFy5" opacity="1" fill="#fafafa" fill-opacity="1"></use></g><g><use xlink:href="#bfiCLchsS" opacity="1" fill="#2196f3" fill-opacity="1"></use></g><g><use xlink:href="#cKIFun67" opacity="1" fill="#2196f3" fill-opacity="1"></use></g><g><use xlink:href="#b1xkNNTgGO" opacity="1" fill="#2196f3" fill-opacity="1"></use><g><use xlink:href="#b1xkNNTgGO" opacity="1" fill-opacity="0" stroke="#2196f3" stroke-width="10" stroke-opacity="1"></use></g></g><g><use xlink:href="#a1Ece1u57o" opacity="1" fill="#2196f3" fill-opacity="1"></use><g><use xlink:href="#a1Ece1u57o" opacity="1" fill-opacity="0" stroke="#2196f3" stroke-width="10" stroke-opacity="1"></use></g></g><g><use xlink:href="#cIJfOHY0U" opacity="1" fill="#2196f3" fill-opacity="1"></use><g><use xlink:href="#cIJfOHY0U" opacity="1" fill-opacity="0" stroke="#2196f3" stroke-width="10" stroke-opacity="1"></use></g></g></g></g></svg>