<?xml version="1.0" encoding="UTF-8" standalone="no"?>
<!DOCTYPE svg PUBLIC "-//W3C//DTD SVG 1.1//EN" "http://www.w3.org/Graphics/SVG/1.1/DTD/svg11.dtd">
<svg version="1.1" xmlns="http://www.w3.org/2000/svg" xmlns:xlink="http://www.w3.org/1999/xlink" preserveAspectRatio="xMidYMid meet" viewBox="0 0 430 310" width="430" height="310"><defs><path d="M408.58 2.79C417.77 2.79 425.21 10.23 425.21 19.42C425.21 67.72 425.21 195.97 425.21 244.26C425.21 253.45 417.77 260.9 408.58 260.9C327.63 260.9 101.41 260.9 20.46 260.9C11.27 260.9 3.82 253.45 3.82 244.26C3.82 195.97 3.82 67.72 3.82 19.42C3.82 10.23 11.27 2.79 20.46 2.79C101.41 2.79 327.63 2.79 408.58 2.79Z" id="e10tcFYSWy"></path><path d="" id="aQZpi3vkT"></path><path d="" id="faxXBwxgZ"></path><path d="M214.52 260.9L214.52 300.38" id="epl6vlgAQ"></path><path d="M157.37 301.39L271.66 301.39" id="bNcu3dIj"></path><path d="M376.29 106.1C385.31 106.1 392.62 113.41 392.62 122.43C392.62 158.5 392.62 250.39 392.62 286.46C392.62 295.48 385.31 302.79 376.29 302.79C359.39 302.79 325 302.79 308.1 302.79C299.08 302.79 291.77 295.48 291.77 286.46C291.77 250.39 291.77 158.5 291.77 122.43C291.77 113.41 299.08 106.1 308.1 106.1C325 106.1 359.39 106.1 376.29 106.1Z" id="dgqeZBr1D"></path><path d="M32.04 28.85L397 28.85L397 76.87L32.04 76.87L32.04 28.85Z" id="a9IiVIQyQ"></path><path d="M32.04 93.2L271.66 93.2L271.66 161.63L32.04 161.63L32.04 93.2Z" id="d1ScXxUnVk"></path><path d="M32.04 176.04L146.33 176.04L146.33 249.27L32.04 249.27L32.04 176.04Z" id="c3aAgcWkU9"></path><path d="M301.38 137.62L383.02 137.62L383.02 171.23L301.38 171.23L301.38 137.62Z" id="akQ1Hx1gy"></path><path d="M161.22 176.04L275.51 176.04L275.51 249.27L161.22 249.27L161.22 176.04Z" id="a21f1YzWgz"></path><path d="M301.38 181.87L337.98 181.87L337.98 265.9L301.38 265.9L301.38 181.87Z" id="a5NYbEL9cE"></path><path d="M346.41 181.87L383.02 181.87L383.02 265.9L346.41 265.9L346.41 181.87Z" id="djcVEjWh"></path><path d="M292.73 279.79L391.33 279.79L391.33 294.48L292.73 294.48L292.73 279.79Z" id="a8Gj4WQYY"></path><path d="M292.94 114.27L391.54 114.27L391.54 128.95L292.94 128.95L292.94 114.27Z" id="aQQSY4rRe"></path><path d="M385.25 107.76C387.83 107.76 389.93 109.86 389.93 112.45C389.93 113.61 389.93 112.41 389.93 113.57C389.93 116.15 387.83 118.25 385.25 118.25C367.3 118.25 318.15 118.25 300.21 118.25C297.62 118.25 295.52 116.15 295.52 113.57C295.52 112.41 295.52 113.61 295.52 112.45C295.52 109.86 297.62 107.76 300.21 107.76C318.15 107.76 367.3 107.76 385.25 107.76Z" id="c1DczoOi7X"></path><path d="M384.76 290.49C387.34 290.49 389.44 292.59 389.44 295.17C389.44 296.33 389.44 295.13 389.44 296.29C389.44 298.88 387.34 300.98 384.76 300.98C366.81 300.98 317.66 300.98 299.72 300.98C297.13 300.98 295.03 298.88 295.03 296.29C295.03 295.13 295.03 296.33 295.03 295.17C295.03 292.59 297.13 290.49 299.72 290.49C317.66 290.49 366.81 290.49 384.76 290.49Z" id="c2QNKFwt6X"></path></defs><g><g><g><g><use xlink:href="#e10tcFYSWy" opacity="1" fill-opacity="0" stroke="#2196f3" stroke-width="2" stroke-opacity="1"></use></g></g><g><g><use xlink:href="#aQZpi3vkT" opacity="1" fill-opacity="0" stroke="#2196f3" stroke-width="5" stroke-opacity="1"></use></g></g><g><g><use xlink:href="#faxXBwxgZ" opacity="1" fill-opacity="0" stroke="#2196f3" stroke-width="5" stroke-opacity="1"></use></g></g><g><g><use xlink:href="#epl6vlgAQ" opacity="1" fill-opacity="0" stroke="#2196f3" stroke-width="3" stroke-opacity="1"></use></g></g><g><g><use xlink:href="#bNcu3dIj" opacity="1" fill-opacity="0" stroke="#2196f3" stroke-width="3" stroke-opacity="1"></use></g></g><g><use xlink:href="#dgqeZBr1D" opacity="1" fill="#fafafa" fill-opacity="1"></use><g><use xlink:href="#dgqeZBr1D" opacity="1" fill-opacity="0" stroke="#2196f3" stroke-width="4" stroke-opacity="1"></use></g></g><g><use xlink:href="#a9IiVIQyQ" opacity="0.3" fill="#2196f3" fill-opacity="1"></use></g><g><use xlink:href="#d1ScXxUnVk" opacity="0.3" fill="#2196f3" fill-opacity="1"></use></g><g><use xlink:href="#c3aAgcWkU9" opacity="0.3" fill="#2196f3" fill-opacity="1"></use></g><g><use xlink:href="#akQ1Hx1gy" opacity="0.3" fill="#2196f3" fill-opacity="1"></use></g><g><use xlink:href="#a21f1YzWgz" opacity="0.3" fill="#2196f3" fill-opacity="1"></use></g><g><use xlink:href="#a5NYbEL9cE" opacity="0.3" fill="#2196f3" fill-opacity="1"></use></g><g><use xlink:href="#djcVEjWh" opacity="0.3" fill="#2196f3" fill-opacity="1"></use></g><path></path><path></path><g><use xlink:href="#a8Gj4WQYY" opacity="1" fill="#2196f3" fill-opacity="1"></use></g><g><use xlink:href="#aQQSY4rRe" opacity="1" fill="#2196f3" fill-opacity="1"></use></g><g><use xlink:href="#c1DczoOi7X" opacity="1" fill="#2196f3" fill-opacity="1"></use></g><g><use xlink:href="#c2QNKFwt6X" opacity="1" fill="#2196f3" fill-opacity="1"></use></g></g></g></svg>